<?xml version="1.0" encoding="utf-8"?>
<!-- Generator: Adobe Illustrator 21.0.2, SVG Export Plug-In . SVG Version: 6.00 Build 0)  -->
<svg version="1.1" id="Capa_1" xmlns="http://www.w3.org/2000/svg" xmlns:xlink="http://www.w3.org/1999/xlink" x="0px" y="0px"
	 viewBox="0 0 451 451" style="enable-background:new 0 0 451 451;" xml:space="preserve">
<style type="text/css">
	.st0{fill:#FFFFFF;}
</style>
<g>
	<g id="XMLID_1_">
		<g>
			<path class="st0" d="M447,428c5.2,5.2,5.2,13.8,0,19c-2.6,2.7-6.1,4-9.5,4c-3.4,0-6.9-1.4-9.5-4L318.5,337.4
				c-33.8,29.4-77.9,47.2-126.1,47.2c-106,0-192.3-86.3-192.3-192.3S86.3,0,192.4,0c106,0,192.3,86.2,192.3,192.3
				c0,48.2-17.8,92.3-47.2,126.1L447,428z M357.5,192.3c0-91.1-74.1-165.3-165.3-165.3C101.2,27,27,101.1,27,192.3
				s74.2,165.4,165.3,165.4C283.5,357.7,357.5,283.4,357.5,192.3z"/>
		</g>
		<g>
		</g>
	</g>
</g>
</svg>
